<?xml version="1.0" encoding="UTF-8" standalone="no"?>
<!-- Created with Inkscape (http://www.inkscape.org/) -->

<svg
   xmlns:dc="http://purl.org/dc/elements/1.1/"
   xmlns:cc="http://creativecommons.org/ns#"
   xmlns:rdf="http://www.w3.org/1999/02/22-rdf-syntax-ns#"
   xmlns:svg="http://www.w3.org/2000/svg"
   xmlns="http://www.w3.org/2000/svg"
   version="1.0"
   width="147"
   height="50"
   viewBox="0 0 147 50"
   id="Calque_1"
   xml:space="preserve"><metadata
     id="metadata531"><rdf:RDF><cc:Work
         rdf:about=""><dc:format>image/svg+xml</dc:format><dc:type
           rdf:resource="http://purl.org/dc/dcmitype/StillImage" /><dc:title></dc:title></cc:Work></rdf:RDF></metadata><defs
     id="defs529" /><g
     transform="matrix(0.2534102,0,0,0.2534102,-0.5937401,-0.9384914)"
     id="g3"><g
       id="g5"><linearGradient
         x1="319.4653"
         y1="50.417999"
         x2="319.4653"
         y2="215.7034"
         id="SVGID_1_"
         gradientUnits="userSpaceOnUse"><stop
           id="stop8"
           style="stop-color:#758283;stop-opacity:1"
           offset="0" /><stop
           id="stop10"
           style="stop-color:#525d5e;stop-opacity:1"
           offset="1" /></linearGradient><path
         d="m 343.405,158.017 h 22.16 l -33.587,-46.504 2.14,-0.639 c 4.253,-1.265 7.981,-3.055 11.079,-5.32 3.075,-2.248 5.531,-4.83 7.294,-7.666 1.794,-2.877 3.124,-5.902 3.954,-8.993 0.832,-3.106 1.254,-6.431 1.254,-9.878 0,-4.01 -0.484,-7.669 -1.446,-10.873 -0.945,-3.176 -2.166,-5.828 -3.622,-7.88 -1.453,-2.038 -3.298,-3.849 -5.498,-5.38 -2.251,-1.566 -4.438,-2.762 -6.498,-3.557 -2.089,-0.805 -4.532,-1.46 -7.259,-1.945 -2.753,-0.492 -5.131,-0.804 -7.062,-0.934 -1.962,-0.131 -4.134,-0.195 -6.448,-0.195 h -46.499 v 109.764 h 16.861 v -43.788 h 21.548 l 31.629,43.788 z M 290.228,98.956 V 63.445 h 23.754 c 17.243,0 25.983,5.853 25.983,17.397 0,3.053 -0.607,5.762 -1.812,8.047 -1.2,2.288 -2.758,4.109 -4.627,5.412 -1.813,1.27 -4.141,2.271 -6.91,2.976 -2.66,0.683 -5.288,1.138 -7.807,1.356 -2.466,0.215 -5.345,0.322 -8.56,0.322 h -20.021 z"
         id="path12"
         style="fill:url(#SVGID_1_)" /><g
         id="g14"><linearGradient
           x1="387.1196"
           y1="50.417999"
           x2="387.1196"
           y2="215.69611"
           id="SVGID_2_"
           gradientUnits="userSpaceOnUse"><stop
             id="stop17"
             style="stop-color:#758283;stop-opacity:1"
             offset="0" /><stop
             id="stop19"
             style="stop-color:#525d5e;stop-opacity:1"
             offset="1" /></linearGradient><polygon
           points="396.504,66.622 396.504,55.882 396.504,48.253 377.736,48.253 377.736,66.622 "
           id="polygon21"
           style="fill:url(#SVGID_2_)" /><linearGradient
           x1="387.12061"
           y1="50.4189"
           x2="387.12061"
           y2="215.70351"
           id="SVGID_3_"
           gradientUnits="userSpaceOnUse"><stop
             id="stop24"
             style="stop-color:#758283;stop-opacity:1"
             offset="0" /><stop
             id="stop26"
             style="stop-color:#525d5e;stop-opacity:1"
             offset="1" /></linearGradient><rect
           width="16.381001"
           height="75.350998"
           x="378.92999"
           y="82.666"
           id="rect28"
           style="fill:url(#SVGID_3_)" /></g><linearGradient
         x1="451.04739"
         y1="50.420399"
         x2="451.04739"
         y2="215.7025"
         id="SVGID_4_"
         gradientUnits="userSpaceOnUse"><stop
           id="stop31"
           style="stop-color:#758283;stop-opacity:1"
           offset="0" /><stop
           id="stop33"
           style="stop-color:#525d5e;stop-opacity:1"
           offset="1" /></linearGradient><path
         d="m 461.372,97.425 c 2.493,0.852 4.329,1.846 5.614,3.04 1.285,1.192 2.297,2.726 3.019,4.558 0.689,1.75 1.098,3.199 1.251,4.435 0.139,1.169 0.21,2.528 0.21,4.05 v 44.51 h 16.383 V 113.27 c 0,-3.496 -0.183,-6.689 -0.542,-9.494 -0.35,-2.707 -1.137,-5.615 -2.327,-8.641 -1.161,-2.93 -2.731,-5.377 -4.68,-7.275 -1.949,-1.9 -4.706,-3.521 -8.188,-4.814 -3.518,-1.307 -7.771,-1.967 -12.641,-1.967 -9.119,0 -19.148,2.309 -29.814,6.865 l -1.372,0.584 -2.931,-5.86 h -11.107 v 75.351 h 16.379 v -56.963 l 1.015,-0.391 c 7.73,-2.971 14.875,-4.475 21.237,-4.475 3.226,-0.002 6.083,0.411 8.494,1.235 z"
         id="path35"
         style="fill:url(#SVGID_4_)" /><linearGradient
         x1="541.98291"
         y1="50.419399"
         x2="541.98291"
         y2="215.7063"
         id="SVGID_5_"
         gradientUnits="userSpaceOnUse"><stop
           id="stop38"
           style="stop-color:#758283;stop-opacity:1"
           offset="0" /><stop
           id="stop40"
           style="stop-color:#525d5e;stop-opacity:1"
           offset="1" /></linearGradient><path
         d="m 569.955,191.022 c 2.246,-2.07 4.096,-4.26 5.494,-6.509 1.411,-2.269 2.59,-4.78 3.499,-7.462 0.92,-2.702 1.564,-5.345 1.919,-7.857 0.357,-2.537 0.541,-5.201 0.541,-7.924 V 82.666 h -11.994 l -1.37,3.942 -1.555,-0.646 c -7.771,-3.243 -15.077,-4.886 -21.723,-4.886 -3.576,0 -7.249,0.401 -10.913,1.197 -3.631,0.785 -7.418,2.182 -11.252,4.15 -3.81,1.955 -7.218,4.412 -10.14,7.306 -2.878,2.854 -5.271,6.629 -7.114,11.226 -1.851,4.606 -2.788,9.863 -2.788,15.623 0,5.572 0.799,10.664 2.372,15.132 1.566,4.442 3.666,8.156 6.242,11.032 2.601,2.9 5.71,5.37 9.249,7.342 3.558,1.982 7.264,3.411 11.019,4.25 9.817,2.186 20.922,1.555 31.472,-2.211 l 2.114,-0.756 v 2.963 c 0,2.865 -0.181,5.523 -0.536,7.902 -0.366,2.445 -1.171,5.014 -2.397,7.628 -1.252,2.681 -2.967,4.96 -5.093,6.774 -2.116,1.799 -5.016,3.292 -8.614,4.438 -3.561,1.129 -7.803,1.703 -12.603,1.703 -6.861,0 -13.92,-1.176 -20.997,-3.497 l -1.848,-0.675 -4.852,12.546 1.545,0.667 c 8.832,3.439 18.32,5.196 28.141,5.196 5.01,0 9.65,-0.433 13.785,-1.28 4.113,-0.843 7.688,-2.002 10.629,-3.447 2.921,-1.432 5.535,-3.206 7.768,-5.263 z m -5.977,-48.447 c -5.448,1.959 -10.975,2.955 -16.431,2.955 -8.88,0 -15.841,-2.501 -20.682,-7.431 -4.834,-4.917 -7.287,-11.269 -7.287,-18.87 0,-7.32 2.431,-13.26 7.228,-17.66 4.76,-4.361 11.119,-6.574 18.914,-6.574 5.054,0 11.165,1.037 18.168,3.084 l 1.139,0.333 v 43.786 l -1.049,0.377 z"
         id="path42"
         style="fill:url(#SVGID_5_)" /></g><linearGradient
       x1="-926.53271"
       y1="190.0723"
       x2="-946.48608"
       y2="149.9581"
       id="SVGID_6_"
       gradientUnits="userSpaceOnUse"
       gradientTransform="matrix(0.9258,-0.3779,0.3779,0.9258,877.5587,-482.2394)"><stop
         id="stop45"
         style="stop-color:#0d283a;stop-opacity:1"
         offset="0" /><stop
         id="stop47"
         style="stop-color:#0c3042;stop-opacity:1"
         offset="0.0284" /><stop
         id="stop49"
         style="stop-color:#0b495a;stop-opacity:1"
         offset="0.1353" /><stop
         id="stop51"
         style="stop-color:#0a5b6c;stop-opacity:1"
         offset="0.24680001" /><stop
         id="stop53"
         style="stop-color:#0a6676;stop-opacity:1"
         offset="0.36469999" /><stop
         id="stop55"
         style="stop-color:#0a697a;stop-opacity:1"
         offset="0.5" /><stop
         id="stop57"
         style="stop-color:#0a6070;stop-opacity:1"
         offset="0.61769998" /><stop
         id="stop59"
         style="stop-color:#0b4758;stop-opacity:1"
         offset="0.8125" /><stop
         id="stop61"
         style="stop-color:#0d283a;stop-opacity:1"
         offset="1" /></linearGradient><path
       d="M 74.638,56.318 C 83.176,43.934 91.708,33.155 99.592,24.631 85.119,8.978 72.835,0.917 66.79,4.577 c -2.932,1.779 -5.994,6.73 -5.614,12.996 0.292,4.844 2.583,11.436 4.637,18.309 1.947,6.515 5.458,12.597 8.825,20.436 z"
       id="path63"
       style="fill:url(#SVGID_6_)" /><polygon
       points="146.695,183.995 167.75,171.239 146.695,183.995 "
       id="polygon65"
       style="fill:#0a697a" /><linearGradient
       x1="-905.56592"
       y1="337.21289"
       x2="-915.90369"
       y2="272.25439"
       id="SVGID_7_"
       gradientUnits="userSpaceOnUse"
       gradientTransform="matrix(0.9258,-0.3779,0.3779,0.9258,877.5587,-482.2394)"><stop
         id="stop68"
         style="stop-color:#0d283a;stop-opacity:1"
         offset="0" /><stop
         id="stop70"
         style="stop-color:#0c3042;stop-opacity:1"
         offset="0.0284" /><stop
         id="stop72"
         style="stop-color:#0b495a;stop-opacity:1"
         offset="0.1353" /><stop
         id="stop74"
         style="stop-color:#0a5b6c;stop-opacity:1"
         offset="0.24680001" /><stop
         id="stop76"
         style="stop-color:#0a6676;stop-opacity:1"
         offset="0.36469999" /><stop
         id="stop78"
         style="stop-color:#0a697a;stop-opacity:1"
         offset="0.5" /><stop
         id="stop80"
         style="stop-color:#0a6070;stop-opacity:1"
         offset="0.61769998" /><stop
         id="stop82"
         style="stop-color:#0b4758;stop-opacity:1"
         offset="0.8125" /><stop
         id="stop84"
         style="stop-color:#0d283a;stop-opacity:1"
         offset="1" /></linearGradient><path
       d="m 167.75,171.239 c 5.602,-3.394 4.768,-16.18 -1.082,-33.992 -2.977,0.679 -6.234,0.045 -9.548,0.627 -4.85,0.854 -10.503,1.426 -15.988,2.061 -4.534,0.528 -8.723,2.436 -13.616,2.789 17.609,21.115 33.162,32.798 40.234,28.515 z"
       id="path86"
       style="fill:url(#SVGID_7_)" /><polygon
       points="60.067,188.598 60.067,188.598 31.4,171.224 "
       id="polygon88"
       style="fill:#057587" /><linearGradient
       x1="-1157.9287"
       y1="622.66803"
       x2="-1058.5417"
       y2="788.51257"
       id="SVGID_8_"
       gradientUnits="userSpaceOnUse"
       gradientTransform="matrix(1.0001,-0.0024,0.0024,1.0001,1206.918,-608.9852)"><stop
         id="stop91"
         style="stop-color:#0d283a;stop-opacity:1"
         offset="0" /><stop
         id="stop93"
         style="stop-color:#0c2b3d;stop-opacity:1"
         offset="0.0057" /><stop
         id="stop95"
         style="stop-color:#0b4253;stop-opacity:1"
         offset="0.0559" /><stop
         id="stop97"
         style="stop-color:#0b5464;stop-opacity:1"
         offset="0.1136" /><stop
         id="stop99"
         style="stop-color:#0a6071;stop-opacity:1"
         offset="0.1837" /><stop
         id="stop101"
         style="stop-color:#0a6778;stop-opacity:1"
         offset="0.278" /><stop
         id="stop103"
         style="stop-color:#0a697a;stop-opacity:1"
         offset="0.5" /><stop
         id="stop105"
         style="stop-color:#0a6778;stop-opacity:1"
         offset="0.722" /><stop
         id="stop107"
         style="stop-color:#0a6071;stop-opacity:1"
         offset="0.81629997" /><stop
         id="stop109"
         style="stop-color:#0b5464;stop-opacity:1"
         offset="0.88639998" /><stop
         id="stop111"
         style="stop-color:#0b4253;stop-opacity:1"
         offset="0.94410002" /><stop
         id="stop113"
         style="stop-color:#0c2b3d;stop-opacity:1"
         offset="0.99430001" /><stop
         id="stop115"
         style="stop-color:#0d283a;stop-opacity:1"
         offset="1" /></linearGradient><path
       d="m 99.715,95.906 c -1.549,0.002 -3.178,0.058 -4.712,0.085 0.732,1.23 -0.599,3.638 0.154,4.874 0.502,0.817 3.458,1.214 3.958,2.028 0.313,-0.002 0.313,-0.002 0.617,-0.004 0.171,0 0.599,0.002 0.767,-0.002 0.507,-0.808 0.798,-2.105 1.298,-2.922 0.749,-1.25 1.688,-2.826 2.427,-4.071 -1.415,-0.01 -3.085,0.007 -4.509,0.012 z"
       id="path117"
       style="fill:url(#SVGID_8_)" /><linearGradient
       x1="-1175.3882"
       y1="776.74512"
       x2="-1073.8772"
       y2="612.05188"
       id="SVGID_9_"
       gradientUnits="userSpaceOnUse"
       gradientTransform="matrix(1.0001,-0.0024,0.0024,1.0001,1206.918,-608.9852)"><stop
         id="stop120"
         style="stop-color:#014251;stop-opacity:1"
         offset="0" /><stop
         id="stop122"
         style="stop-color:#025262;stop-opacity:1"
         offset="0.0859" /><stop
         id="stop124"
         style="stop-color:#046676;stop-opacity:1"
         offset="0.22669999" /><stop
         id="stop126"
         style="stop-color:#057183;stop-opacity:1"
         offset="0.36579999" /><stop
         id="stop128"
         style="stop-color:#057587;stop-opacity:1"
         offset="0.5" /><stop
         id="stop130"
         style="stop-color:#057183;stop-opacity:1"
         offset="0.63419998" /><stop
         id="stop132"
         style="stop-color:#046676;stop-opacity:1"
         offset="0.77329999" /><stop
         id="stop134"
         style="stop-color:#025262;stop-opacity:1"
         offset="0.91409999" /><stop
         id="stop136"
         style="stop-color:#014251;stop-opacity:1"
         offset="1" /></linearGradient><path
       d="m 71.559,142.815 c -4.86,-0.342 -9.568,-3.172 -14.074,-3.678 -4.96,-0.561 -9.682,-1.223 -14.133,-1.967 -3.863,-0.648 -7.512,1.03 -10.918,0.259 -5.802,17.705 -6.604,30.409 -1.034,33.794 7.055,4.276 22.572,-7.36 40.159,-28.408 z"
       id="path138"
       style="fill:url(#SVGID_9_)" /><polygon
       points="153.453,17.346 132.406,4.589 153.455,17.351 "
       id="polygon140"
       style="fill:#057587" /><linearGradient
       x1="-897.70117"
       y1="159.0649"
       x2="-919.71552"
       y2="211.321"
       id="SVGID_10_"
       gradientUnits="userSpaceOnUse"
       gradientTransform="matrix(0.9258,-0.3779,0.3779,0.9258,877.5587,-482.2394)"><stop
         id="stop143"
         style="stop-color:#014251;stop-opacity:1"
         offset="0" /><stop
         id="stop145"
         style="stop-color:#057587;stop-opacity:1"
         offset="0.5" /><stop
         id="stop147"
         style="stop-color:#057384;stop-opacity:1"
         offset="0.69340003" /><stop
         id="stop149"
         style="stop-color:#056b7c;stop-opacity:1"
         offset="0.80379999" /><stop
         id="stop151"
         style="stop-color:#035e6e;stop-opacity:1"
         offset="0.89319998" /><stop
         id="stop153"
         style="stop-color:#024b5b;stop-opacity:1"
         offset="0.97100002" /><stop
         id="stop155"
         style="stop-color:#014251;stop-opacity:1"
         offset="1" /></linearGradient><path
       d="m 75.014,57.177 c 7.944,-0.516 16.068,-0.746 24.662,-0.764 8.543,-0.021 16.626,0.205 24.526,0.678 3.928,-9.104 8.657,-15.416 10.691,-22.775 2.188,-7.908 3.184,-15.291 2.841,-20.172 -0.282,-4.004 -3.135,-8.229 -5.328,-9.555 -6.053,-3.661 -18.34,4.395 -32.814,20.043 -7.883,8.523 -16.416,19.303 -24.954,31.687 0.057,0.139 0.321,0.727 0.376,0.858 z"
       id="path157"
       style="fill:url(#SVGID_10_)" /><polygon
       points="197.228,103.511 197.162,78.903 197.224,103.518 "
       id="polygon159"
       style="fill:#0a8195" /><linearGradient
       x1="-1005.6821"
       y1="209.8994"
       x2="-974.35791"
       y2="143.3932"
       id="SVGID_11_"
       gradientUnits="userSpaceOnUse"
       gradientTransform="matrix(0.9258,-0.3779,0.3779,0.9258,877.5587,-482.2394)"><stop
         id="stop162"
         style="stop-color:#0b5463;stop-opacity:1"
         offset="0" /><stop
         id="stop164"
         style="stop-color:#0b6070;stop-opacity:1"
         offset="0.0704" /><stop
         id="stop166"
         style="stop-color:#0b7285;stop-opacity:1"
         offset="0.2165" /><stop
         id="stop168"
         style="stop-color:#0a7d91;stop-opacity:1"
         offset="0.3608" /><stop
         id="stop170"
         style="stop-color:#0a8195;stop-opacity:1"
         offset="0.5" /><stop
         id="stop172"
         style="stop-color:#0a7d91;stop-opacity:1"
         offset="0.63919997" /><stop
         id="stop174"
         style="stop-color:#0b7285;stop-opacity:1"
         offset="0.78350002" /><stop
         id="stop176"
         style="stop-color:#0b6070;stop-opacity:1"
         offset="0.9296" /><stop
         id="stop178"
         style="stop-color:#0b5463;stop-opacity:1"
         offset="1" /></linearGradient><path
       d="M 49.583,99.051 C 45.692,91.57 44.469,83.438 41.54,76.62 39.215,71.217 34.993,66.974 33.336,62.165 14.284,66.46 2.366,72.532 2.379,79.243 c 0.007,2.272 0.791,5.357 3.333,7.43 4.492,3.643 13.418,6.957 24.211,9.601 5.882,1.44 10.712,2.067 19.66,2.777 z"
       id="path180"
       style="fill:url(#SVGID_11_)" /><linearGradient
       x1="-872.30859"
       y1="272.51071"
       x2="-840.98712"
       y2="206.01019"
       id="SVGID_12_"
       gradientUnits="userSpaceOnUse"
       gradientTransform="matrix(0.9258,-0.3779,0.3779,0.9258,877.5587,-482.2394)"><stop
         id="stop183"
         style="stop-color:#0b5463;stop-opacity:1"
         offset="0" /><stop
         id="stop185"
         style="stop-color:#0b6070;stop-opacity:1"
         offset="0.0704" /><stop
         id="stop187"
         style="stop-color:#0b7285;stop-opacity:1"
         offset="0.2165" /><stop
         id="stop189"
         style="stop-color:#0a7d91;stop-opacity:1"
         offset="0.3608" /><stop
         id="stop191"
         style="stop-color:#0a8195;stop-opacity:1"
         offset="0.5" /><stop
         id="stop193"
         style="stop-color:#0a7d91;stop-opacity:1"
         offset="0.63919997" /><stop
         id="stop195"
         style="stop-color:#0b7285;stop-opacity:1"
         offset="0.78350002" /><stop
         id="stop197"
         style="stop-color:#0b6070;stop-opacity:1"
         offset="0.9296" /><stop
         id="stop199"
         style="stop-color:#0b5463;stop-opacity:1"
         offset="1" /></linearGradient><path
       d="m 149.836,98.659 c 2.671,-0.389 5.549,1.152 8.047,0.707 4.666,-0.832 10.384,-1.567 14.364,-2.584 16.524,-4.207 25,-12.006 24.988,-18.205 -0.018,-6.723 -12.001,-12.748 -31.126,-16.944 -3.725,10.897 -9.257,23.553 -16.273,37.026 z"
       id="path201"
       style="fill:url(#SVGID_12_)" /><linearGradient
       x1="-1203.9102"
       y1="680.96973"
       x2="-1011.0308"
       y2="680.96973"
       id="SVGID_13_"
       gradientUnits="userSpaceOnUse"
       gradientTransform="matrix(1.0001,-0.0024,0.0024,1.0001,1206.918,-608.9852)"><stop
         id="stop204"
         style="stop-color:#0b5463;stop-opacity:1"
         offset="0" /><stop
         id="stop206"
         style="stop-color:#0b5463;stop-opacity:1"
         offset="1" /></linearGradient><path
       d="m 74.926,55.363 c 2.734,6.327 3.68,13.903 7.24,20.792 3.3,6.393 7.723,13.246 13.11,18.742 1.53,-0.018 3.057,-0.041 4.611,-0.047 1.426,-0.003 2.833,0.014 4.244,0.025 8.237,-13.91 15.127,-27.424 20.4,-39.644 -7.903,-0.478 -16.2,-0.715 -24.748,-0.694 -8.593,0.021 -16.92,0.311 -24.857,0.826 z"
       id="path208"
       style="opacity:0.25;fill:url(#SVGID_13_)" /><linearGradient
       x1="-940.75928"
       y1="240.6377"
       x2="-909.43573"
       y2="174.1329"
       id="SVGID_14_"
       gradientUnits="userSpaceOnUse"
       gradientTransform="matrix(0.9258,-0.3779,0.3779,0.9258,877.5587,-482.2394)"><stop
         id="stop211"
         style="stop-color:#0b5463;stop-opacity:1"
         offset="0" /><stop
         id="stop213"
         style="stop-color:#0b6070;stop-opacity:1"
         offset="0.0704" /><stop
         id="stop215"
         style="stop-color:#0b7285;stop-opacity:1"
         offset="0.2165" /><stop
         id="stop217"
         style="stop-color:#0a7d91;stop-opacity:1"
         offset="0.3608" /><stop
         id="stop219"
         style="stop-color:#0a8195;stop-opacity:1"
         offset="0.5" /><stop
         id="stop221"
         style="stop-color:#0a7d91;stop-opacity:1"
         offset="0.63919997" /><stop
         id="stop223"
         style="stop-color:#0b7285;stop-opacity:1"
         offset="0.78350002" /><stop
         id="stop225"
         style="stop-color:#0b6070;stop-opacity:1"
         offset="0.9296" /><stop
         id="stop227"
         style="stop-color:#0b5463;stop-opacity:1"
         offset="1" /></linearGradient><path
       d="m 74.816,56.72 c 2.734,6.325 3.682,13.897 7.239,20.79 3.297,6.394 7.723,13.247 13.11,18.747 1.532,-0.024 3.059,-0.048 4.617,-0.05 1.423,-0.005 2.829,0.01 4.241,0.023 8.236,-13.913 15.125,-27.425 20.396,-39.644 -7.898,-0.479 -16.193,-0.712 -24.743,-0.695 -8.596,0.023 -16.92,0.309 -24.86,0.829 z"
       id="path229"
       style="fill:url(#SVGID_14_)" /><linearGradient
       x1="-1065.6772"
       y1="792.08197"
       x2="-1165.955"
       y2="625.9502"
       id="SVGID_15_"
       gradientUnits="userSpaceOnUse"
       gradientTransform="matrix(1.0001,-0.0024,0.0024,1.0001,1206.918,-608.9852)"><stop
         id="stop232"
         style="stop-color:#096f80;stop-opacity:1"
         offset="0" /><stop
         id="stop234"
         style="stop-color:#107a8a;stop-opacity:1"
         offset="0.0366" /><stop
         id="stop236"
         style="stop-color:#2497a5;stop-opacity:1"
         offset="0.1549" /><stop
         id="stop238"
         style="stop-color:#32abb8;stop-opacity:1"
         offset="0.27250001" /><stop
         id="stop240"
         style="stop-color:#3bb8c4;stop-opacity:1"
         offset="0.3883" /><stop
         id="stop242"
         style="stop-color:#3ebcc8;stop-opacity:1"
         offset="0.5" /><stop
         id="stop244"
         style="stop-color:#3bb8c4;stop-opacity:1"
         offset="0.6117" /><stop
         id="stop246"
         style="stop-color:#32abb8;stop-opacity:1"
         offset="0.72750002" /><stop
         id="stop248"
         style="stop-color:#2497a5;stop-opacity:1"
         offset="0.84509999" /><stop
         id="stop250"
         style="stop-color:#107a8a;stop-opacity:1"
         offset="0.96340001" /><stop
         id="stop252"
         style="stop-color:#096f80;stop-opacity:1"
         offset="1" /></linearGradient><path
       d="m 128.491,142.162 c -0.74,0.056 -1.54,-1.075 -2.283,-1.029 -0.735,0.054 -1.423,1.284 -2.161,1.328 -8.046,11.505 -16.06,21.552 -23.499,29.593 14.472,15.653 26.76,23.709 32.812,20.044 l 14.316,-8.666 20.565,-12.493 c -7.064,4.277 -22.132,-7.665 -39.75,-28.777 z"
       id="path254"
       style="fill:url(#SVGID_15_)" /><linearGradient
       x1="-928.24902"
       y1="340.99121"
       x2="-947.69122"
       y2="302.10681"
       id="SVGID_16_"
       gradientUnits="userSpaceOnUse"
       gradientTransform="matrix(0.9258,-0.3779,0.3779,0.9258,877.5587,-482.2394)"><stop
         id="stop257"
         style="stop-color:#096f80;stop-opacity:1"
         offset="0" /><stop
         id="stop259"
         style="stop-color:#097181;stop-opacity:1"
         offset="0.0061" /><stop
         id="stop261"
         style="stop-color:#0b8395;stop-opacity:1"
         offset="0.0912" /><stop
         id="stop263"
         style="stop-color:#0c8fa4;stop-opacity:1"
         offset="0.1876" /><stop
         id="stop265"
         style="stop-color:#0d97ac;stop-opacity:1"
         offset="0.30489999" /><stop
         id="stop267"
         style="stop-color:#0d99af;stop-opacity:1"
         offset="0.5" /><stop
         id="stop269"
         style="stop-color:#0d97ac;stop-opacity:1"
         offset="0.69510001" /><stop
         id="stop271"
         style="stop-color:#0c8fa4;stop-opacity:1"
         offset="0.81239998" /><stop
         id="stop273"
         style="stop-color:#0b8395;stop-opacity:1"
         offset="0.90880001" /><stop
         id="stop275"
         style="stop-color:#097181;stop-opacity:1"
         offset="0.9939" /><stop
         id="stop277"
         style="stop-color:#096f80;stop-opacity:1"
         offset="1" /></linearGradient><path
       d="m 127.516,142.724 c -0.744,0.053 -1.539,-1.077 -2.282,-1.031 -0.737,0.053 -1.424,1.284 -2.167,1.328 -8.051,11.512 -16.065,21.554 -23.5,29.593 14.476,15.655 26.761,23.712 32.814,20.05 l 14.314,-8.668 21.054,-12.756 c -7.071,4.282 -22.624,-7.401 -40.233,-28.516 z"
       id="path279"
       style="fill:url(#SVGID_16_)" /><linearGradient
       x1="-964.6626"
       y1="149.0596"
       x2="-932.28772"
       y2="376.7428"
       id="SVGID_17_"
       gradientUnits="userSpaceOnUse"
       gradientTransform="matrix(0.9258,-0.3779,0.3779,0.9258,877.5587,-482.2394)"><stop
         id="stop282"
         style="stop-color:#096f80;stop-opacity:1"
         offset="0" /><stop
         id="stop284"
         style="stop-color:#097181;stop-opacity:1"
         offset="0.0083" /><stop
         id="stop286"
         style="stop-color:#0c8395;stop-opacity:1"
         offset="0.17550001" /><stop
         id="stop288"
         style="stop-color:#0e8ea2;stop-opacity:1"
         offset="0.34060001" /><stop
         id="stop290"
         style="stop-color:#0f92a6;stop-opacity:1"
         offset="0.5" /><stop
         id="stop292"
         style="stop-color:#0e8ea2;stop-opacity:1"
         offset="0.65939999" /><stop
         id="stop294"
         style="stop-color:#0c8395;stop-opacity:1"
         offset="0.82450002" /><stop
         id="stop296"
         style="stop-color:#097181;stop-opacity:1"
         offset="0.99169999" /><stop
         id="stop298"
         style="stop-color:#096f80;stop-opacity:1"
         offset="1" /></linearGradient><path
       d="m 50.539,98.525 c 4.228,2.405 9.138,1.903 13.813,2.342 7.173,0.682 14.111,1.113 22.012,1.367 4.332,0.142 9.428,1.019 13.924,0.169 -0.5,-0.814 -1.392,-2.287 -1.893,-3.105 C 97.643,98.06 96.916,96.821 96.188,95.591 87.977,81.724 81.105,68.249 75.843,56.056 75.786,55.921 75.724,55.79 75.669,55.652 64.147,28.847 60.035,8.659 67.369,4.217 L 39.141,21.284 32.443,25.34 c -5.841,3.538 -4.697,17.286 1.847,36.305 3.746,10.877 9.268,23.479 16.249,36.88 z"
       id="path300"
       style="fill:url(#SVGID_17_)" /><linearGradient
       x1="-966.78082"
       y1="238.23241"
       x2="-958.54968"
       y2="147.5025"
       id="SVGID_18_"
       gradientUnits="userSpaceOnUse"
       gradientTransform="matrix(0.9258,-0.3779,0.3779,0.9258,877.5587,-482.2394)"><stop
         id="stop303"
         style="stop-color:#096f80;stop-opacity:1"
         offset="0" /><stop
         id="stop305"
         style="stop-color:#097181;stop-opacity:1"
         offset="0.0061" /><stop
         id="stop307"
         style="stop-color:#0b8395;stop-opacity:1"
         offset="0.0912" /><stop
         id="stop309"
         style="stop-color:#0c8fa4;stop-opacity:1"
         offset="0.1876" /><stop
         id="stop311"
         style="stop-color:#0d97ac;stop-opacity:1"
         offset="0.30489999" /><stop
         id="stop313"
         style="stop-color:#0d99af;stop-opacity:1"
         offset="0.5" /><stop
         id="stop315"
         style="stop-color:#0d97ac;stop-opacity:1"
         offset="0.69510001" /><stop
         id="stop317"
         style="stop-color:#0c8fa4;stop-opacity:1"
         offset="0.81239998" /><stop
         id="stop319"
         style="stop-color:#0b8395;stop-opacity:1"
         offset="0.90880001" /><stop
         id="stop321"
         style="stop-color:#097181;stop-opacity:1"
         offset="0.9939" /><stop
         id="stop323"
         style="stop-color:#096f80;stop-opacity:1"
         offset="1" /></linearGradient><path
       d="m 49.51,99.193 c 4.231,2.402 9.141,1.897 13.819,2.337 7.172,0.681 14.113,1.111 22.013,1.373 4.324,0.138 9.025,0.352 13.53,-0.507 -0.5,-0.81 -0.998,-1.619 -1.499,-2.436 C 96.62,98.723 95.891,97.486 95.165,96.256 86.958,82.383 80.086,68.908 74.816,56.72 74.754,56.585 74.695,56.458 74.638,56.319 63.125,29.509 59.449,9.024 66.79,4.577 l -28.67,17.37 -6.697,4.056 c -5.847,3.539 -4.704,17.287 1.841,36.305 3.752,10.875 9.264,23.477 16.246,36.885 z"
       id="path325"
       style="fill:url(#SVGID_18_)" /><linearGradient
       x1="-1204.3389"
       y1="716.39838"
       x2="-1011.4579"
       y2="716.39838"
       id="SVGID_19_"
       gradientUnits="userSpaceOnUse"
       gradientTransform="matrix(1.0001,-0.0024,0.0024,1.0001,1206.918,-608.9852)"><stop
         id="stop328"
         style="stop-color:#057b8f;stop-opacity:1"
         offset="0" /><stop
         id="stop330"
         style="stop-color:#0a8093;stop-opacity:1"
         offset="0.0176" /><stop
         id="stop332"
         style="stop-color:#279aad;stop-opacity:1"
         offset="0.1407" /><stop
         id="stop334"
         style="stop-color:#3baebf;stop-opacity:1"
         offset="0.2631" /><stop
         id="stop336"
         style="stop-color:#48b9ca;stop-opacity:1"
         offset="0.38370001" /><stop
         id="stop338"
         style="stop-color:#4cbdce;stop-opacity:1"
         offset="0.5" /><stop
         id="stop340"
         style="stop-color:#48b9ca;stop-opacity:1"
         offset="0.61629999" /><stop
         id="stop342"
         style="stop-color:#3baebf;stop-opacity:1"
         offset="0.73689997" /><stop
         id="stop344"
         style="stop-color:#279aad;stop-opacity:1"
         offset="0.85930002" /><stop
         id="stop346"
         style="stop-color:#0a8093;stop-opacity:1"
         offset="0.9824" /><stop
         id="stop348"
         style="stop-color:#057b8f;stop-opacity:1"
         offset="1" /></linearGradient><path
       d="m 2.379,119.451 c 0.015,6.594 11.568,12.579 30.038,16.769 10.922,2.471 24.279,4.344 39.133,5.387 9.315,-11.152 19.21,-24.945 28.735,-40.418 -0.167,0.002 -0.329,0.002 -0.506,0.004 -0.306,-0.002 -0.61,-0.002 -0.916,-0.006 C 78.347,101.196 62.225,99.789 49.509,97.98 21.242,93.982 2.401,87.439 2.379,78.984"
       id="path350"
       style="fill:url(#SVGID_19_)" /><linearGradient
       x1="-968.95801"
       y1="263.91751"
       x2="-1026.1584"
       y2="200.1566"
       id="SVGID_20_"
       gradientUnits="userSpaceOnUse"
       gradientTransform="matrix(0.9258,-0.3779,0.3779,0.9258,877.5587,-482.2394)"><stop
         id="stop353"
         style="stop-color:#057b8f;stop-opacity:1"
         offset="0" /><stop
         id="stop355"
         style="stop-color:#038da1;stop-opacity:1"
         offset="0.0822" /><stop
         id="stop357"
         style="stop-color:#029ab0;stop-opacity:1"
         offset="0.18080001" /><stop
         id="stop359"
         style="stop-color:#01a2b8;stop-opacity:1"
         offset="0.30070001" /><stop
         id="stop361"
         style="stop-color:#01a4bb;stop-opacity:1"
         offset="0.5" /><stop
         id="stop363"
         style="stop-color:#01a2b8;stop-opacity:1"
         offset="0.69929999" /><stop
         id="stop365"
         style="stop-color:#029ab0;stop-opacity:1"
         offset="0.81919998" /><stop
         id="stop367"
         style="stop-color:#038da1;stop-opacity:1"
         offset="0.91780001" /><stop
         id="stop369"
         style="stop-color:#057b8f;stop-opacity:1"
         offset="1" /></linearGradient><path
       d="m 2.39,120.659 c 0.018,6.596 11.567,12.582 30.044,16.771 10.916,2.471 24.264,4.347 39.125,5.386 9.318,-11.15 19.201,-24.94 28.729,-40.412 -0.169,-0.004 -0.327,-0.002 -0.497,-0.007 -0.311,0.007 -0.615,0.007 -0.919,0 C 78.354,102.405 62.235,101 49.51,99.193 21.245,95.195 2.361,88.541 2.343,80.088"
       id="path371"
       style="fill:url(#SVGID_20_)" /><linearGradient
       x1="-1011.7319"
       y1="716.40723"
       x2="-1205.2617"
       y2="716.40723"
       id="SVGID_21_"
       gradientUnits="userSpaceOnUse"
       gradientTransform="matrix(1.0001,-0.0024,0.0024,1.0001,1206.918,-608.9852)"><stop
         id="stop374"
         style="stop-color:#057b8f;stop-opacity:1"
         offset="0" /><stop
         id="stop376"
         style="stop-color:#0e8397;stop-opacity:1"
         offset="0.0312" /><stop
         id="stop378"
         style="stop-color:#2b9eb1;stop-opacity:1"
         offset="0.1508" /><stop
         id="stop380"
         style="stop-color:#3fb2c4;stop-opacity:1"
         offset="0.26980001" /><stop
         id="stop382"
         style="stop-color:#4cbecf;stop-opacity:1"
         offset="0.38690001" /><stop
         id="stop384"
         style="stop-color:#50c1d3;stop-opacity:1"
         offset="0.5" /><stop
         id="stop386"
         style="stop-color:#4cbecf;stop-opacity:1"
         offset="0.61309999" /><stop
         id="stop388"
         style="stop-color:#3fb2c4;stop-opacity:1"
         offset="0.73019999" /><stop
         id="stop390"
         style="stop-color:#2b9eb1;stop-opacity:1"
         offset="0.84920001" /><stop
         id="stop392"
         style="stop-color:#0e8397;stop-opacity:1"
         offset="0.96880001" /><stop
         id="stop394"
         style="stop-color:#057b8f;stop-opacity:1"
         offset="1" /></linearGradient><path
       d="m 197.203,78.089 c 0.021,8.486 -18.909,15.668 -47.32,19.801 -3.789,7.279 -8.007,14.794 -12.619,22.401 -4.629,7.641 -9.355,14.884 -14.08,21.636 1.499,-0.098 2.978,-0.198 4.449,-0.303 14.841,-1.082 28.196,-2.977 39.154,-5.475 18.846,-4.287 30.444,-10.607 30.432,-17.275"
       id="path396"
       style="fill:url(#SVGID_21_)" /><linearGradient
       x1="-853.88037"
       y1="297.2695"
       x2="-907.20679"
       y2="267.67789"
       id="SVGID_22_"
       gradientUnits="userSpaceOnUse"
       gradientTransform="matrix(0.9258,-0.3779,0.3779,0.9258,877.5587,-482.2394)"><stop
         id="stop399"
         style="stop-color:#057b8f;stop-opacity:1"
         offset="0" /><stop
         id="stop401"
         style="stop-color:#038da1;stop-opacity:1"
         offset="0.0822" /><stop
         id="stop403"
         style="stop-color:#029ab0;stop-opacity:1"
         offset="0.18080001" /><stop
         id="stop405"
         style="stop-color:#01a2b8;stop-opacity:1"
         offset="0.30070001" /><stop
         id="stop407"
         style="stop-color:#01a4bb;stop-opacity:1"
         offset="0.5" /><stop
         id="stop409"
         style="stop-color:#01a2b8;stop-opacity:1"
         offset="0.69929999" /><stop
         id="stop411"
         style="stop-color:#029ab0;stop-opacity:1"
         offset="0.81919998" /><stop
         id="stop413"
         style="stop-color:#038da1;stop-opacity:1"
         offset="0.91780001" /><stop
         id="stop415"
         style="stop-color:#057b8f;stop-opacity:1"
         offset="1" /></linearGradient><path
       d="m 197.236,78.903 c 0.022,8.486 -19.067,15.951 -47.474,20.082 -3.79,7.283 -8.005,14.795 -12.619,22.406 -4.625,7.636 -9.359,14.883 -14.076,21.629 1.488,-0.093 2.977,-0.193 4.449,-0.297 14.837,-1.088 28.193,-2.979 39.152,-5.477 18.838,-4.282 30.579,-10.734 30.565,-17.404"
       id="path417"
       style="fill:url(#SVGID_22_)" /><linearGradient
       x1="-1134.7017"
       y1="750.85938"
       x2="-1097.3856"
       y2="688.99988"
       id="SVGID_23_"
       gradientUnits="userSpaceOnUse"
       gradientTransform="matrix(1.0001,-0.0024,0.0024,1.0001,1206.918,-608.9852)"><stop
         id="stop420"
         style="stop-color:#0b879a;stop-opacity:1"
         offset="0" /><stop
         id="stop422"
         style="stop-color:#0b7789;stop-opacity:1"
         offset="0.091" /><stop
         id="stop424"
         style="stop-color:#0b6474;stop-opacity:1"
         offset="0.23010001" /><stop
         id="stop426"
         style="stop-color:#0b5868;stop-opacity:1"
         offset="0.36739999" /><stop
         id="stop428"
         style="stop-color:#0b5463;stop-opacity:1"
         offset="0.5" /><stop
         id="stop430"
         style="stop-color:#0b5868;stop-opacity:1"
         offset="0.63260001" /><stop
         id="stop432"
         style="stop-color:#0b6474;stop-opacity:1"
         offset="0.76990002" /><stop
         id="stop434"
         style="stop-color:#0b7789;stop-opacity:1"
         offset="0.90899998" /><stop
         id="stop436"
         style="stop-color:#0b879a;stop-opacity:1"
         offset="1" /></linearGradient><path
       d="m 112.548,83.382 c -2.41,4.458 -4.967,8.981 -7.673,13.548 -0.735,1.245 -1.475,2.487 -2.226,3.738 -0.502,0.816 -0.997,1.622 -1.504,2.435 -9.532,15.477 -19.418,29.264 -28.733,40.415 -0.183,0.222 -0.37,0.443 -0.56,0.669"
       id="path438"
       style="fill:url(#SVGID_23_)" /><linearGradient
       x1="-1106.0166"
       y1="780.41699"
       x2="-1058.9457"
       y2="702.3866"
       id="SVGID_24_"
       gradientUnits="userSpaceOnUse"
       gradientTransform="matrix(1.0001,-0.0024,0.0024,1.0001,1206.918,-608.9852)"><stop
         id="stop441"
         style="stop-color:#0b5463;stop-opacity:1"
         offset="0" /><stop
         id="stop443"
         style="stop-color:#0b5463;stop-opacity:1"
         offset="1" /></linearGradient><path
       d="m 100.944,174.074 c 7.435,-8.038 15.172,-18.241 23.223,-29.749 4.718,-6.748 18.938,-28.068 28.291,-46.844 l -3.177,0.324 -50.139,74.319 1.802,1.95 z"
       id="path445"
       style="opacity:0.2;fill:url(#SVGID_24_)" /><linearGradient
       x1="-1149.2847"
       y1="792.62701"
       x2="-1049.599"
       y2="627.37622"
       id="SVGID_25_"
       gradientUnits="userSpaceOnUse"
       gradientTransform="matrix(1.0001,-0.0024,0.0024,1.0001,1206.918,-608.9852)"><stop
         id="stop448"
         style="stop-color:#0b879a;stop-opacity:1"
         offset="0" /><stop
         id="stop450"
         style="stop-color:#379fb2;stop-opacity:1"
         offset="0.0824" /><stop
         id="stop452"
         style="stop-color:#5cb4c7;stop-opacity:1"
         offset="0.1675" /><stop
         id="stop454"
         style="stop-color:#79c5d7;stop-opacity:1"
         offset="0.2527" /><stop
         id="stop456"
         style="stop-color:#8dd1e3;stop-opacity:1"
         offset="0.33700001" /><stop
         id="stop458"
         style="stop-color:#9ad8ea;stop-opacity:1"
         offset="0.41999999" /><stop
         id="stop460"
         style="stop-color:#9edaec;stop-opacity:1"
         offset="0.5" /><stop
         id="stop462"
         style="stop-color:#9ad8ea;stop-opacity:1"
         offset="0.57999998" /><stop
         id="stop464"
         style="stop-color:#8dd1e3;stop-opacity:1"
         offset="0.66299999" /><stop
         id="stop466"
         style="stop-color:#79c5d7;stop-opacity:1"
         offset="0.74730003" /><stop
         id="stop468"
         style="stop-color:#5cb4c7;stop-opacity:1"
         offset="0.83249998" /><stop
         id="stop470"
         style="stop-color:#379fb2;stop-opacity:1"
         offset="0.91759998" /><stop
         id="stop472"
         style="stop-color:#0b879a;stop-opacity:1"
         offset="1" /></linearGradient><path
       d="m 135.942,120.884 c 4.612,-7.605 8.833,-15.121 12.619,-22.404 7.014,-13.472 12.547,-26.129 16.27,-37.027 6.437,-18.825 7.534,-32.414 1.737,-35.935 L 152.256,16.84 132.125,4.434 c 7.353,4.461 2.713,24.712 -8.91,51.646 -5.267,12.221 -12.153,25.731 -20.391,39.646 -0.733,1.244 -1.478,2.485 -2.233,3.735 -0.493,0.812 -1,1.618 -1.498,2.433 -9.524,15.475 -19.419,29.266 -28.733,40.415 -17.586,21.046 -31.906,33.19 -38.96,28.915 l 27.461,16.868 6.693,4.062 c 6.049,3.662 18.342,-4.391 32.82,-20.049 7.432,-8.039 15.443,-18.082 23.488,-29.588 4.722,-6.748 9.453,-13.993 14.08,-21.633 z"
       id="path474"
       style="fill:url(#SVGID_25_)" /><linearGradient
       x1="-1148.6597"
       y1="792.78418"
       x2="-1048.9772"
       y2="627.75818"
       id="SVGID_26_"
       gradientUnits="userSpaceOnUse"
       gradientTransform="matrix(1.0001,-0.0024,0.0024,1.0001,1206.918,-608.9852)"><stop
         id="stop477"
         style="stop-color:#0b879a;stop-opacity:1"
         offset="0" /><stop
         id="stop479"
         style="stop-color:#1694a7;stop-opacity:1"
         offset="0.0382" /><stop
         id="stop481"
         style="stop-color:#26a8ba;stop-opacity:1"
         offset="0.1177" /><stop
         id="stop483"
         style="stop-color:#32b6c8;stop-opacity:1"
         offset="0.20810001" /><stop
         id="stop485"
         style="stop-color:#39bed1;stop-opacity:1"
         offset="0.3177" /><stop
         id="stop487"
         style="stop-color:#3bc1d3;stop-opacity:1"
         offset="0.5" /><stop
         id="stop489"
         style="stop-color:#39bed1;stop-opacity:1"
         offset="0.68229997" /><stop
         id="stop491"
         style="stop-color:#32b6c8;stop-opacity:1"
         offset="0.79189998" /><stop
         id="stop493"
         style="stop-color:#26a8ba;stop-opacity:1"
         offset="0.88230002" /><stop
         id="stop495"
         style="stop-color:#1694a7;stop-opacity:1"
         offset="0.96179998" /><stop
         id="stop497"
         style="stop-color:#0b879a;stop-opacity:1"
         offset="1" /></linearGradient><path
       d="m 99.567,172.613 c 7.435,-8.039 15.449,-18.081 23.5,-29.593 4.717,-6.746 9.451,-13.993 14.076,-21.629 4.614,-7.611 8.829,-15.123 12.619,-22.406 7.015,-13.474 12.548,-26.129 16.273,-37.026 6.435,-18.827 7.535,-32.415 1.728,-35.937 L 153.455,17.35 132.406,4.589 c 7.354,4.463 3.629,25.066 -7.988,51.998 -5.271,12.219 -12.159,25.73 -20.396,39.644 -0.734,1.245 -1.478,2.485 -2.226,3.735 -0.5,0.816 -1.001,1.618 -1.508,2.438 C 90.76,117.876 80.876,131.666 71.559,142.816 53.972,163.864 38.455,175.5 31.4,171.224 l 28.667,17.374 6.687,4.061 c 6.055,3.662 18.347,-4.393 32.813,-20.046 l 0,0 z"
       id="path499"
       style="fill:url(#SVGID_26_)" /><linearGradient
       x1="-928.50342"
       y1="297.19531"
       x2="-949.41602"
       y2="288.7179"
       id="SVGID_27_"
       gradientUnits="userSpaceOnUse"
       gradientTransform="matrix(0.9258,-0.3779,0.3779,0.9258,877.5587,-482.2394)"><stop
         id="stop502"
         style="stop-color:#0b5463;stop-opacity:1"
         offset="0" /><stop
         id="stop504"
         style="stop-color:#0b5463;stop-opacity:1"
         offset="1" /></linearGradient><path
       d="m 130.317,144.33 c 0,0 -6.652,0.685 -8.646,0.651 l 1.395,-1.961 c 0,0 3.601,-0.222 5.918,-0.407 l 1.333,1.717 z"
       id="path506"
       style="opacity:0.2;fill:url(#SVGID_27_)" /><linearGradient
       x1="-944.3667"
       y1="195.69479"
       x2="-913.56012"
       y2="172.6203"
       id="SVGID_28_"
       gradientUnits="userSpaceOnUse"
       gradientTransform="matrix(0.9258,-0.3779,0.3779,0.9258,877.5587,-482.2394)"><stop
         id="stop509"
         style="stop-color:#0b5463;stop-opacity:1"
         offset="0" /><stop
         id="stop511"
         style="stop-color:#0b5463;stop-opacity:1"
         offset="1" /></linearGradient><path
       d="m 99.592,24.632 -0.837,-0.898 c 0,0 -11.781,12.822 -23.928,29.949 l 0.624,1.467 c 0,-10e-4 11.48,-16.676 24.141,-30.518 z"
       id="path513"
       style="opacity:0.4;fill:url(#SVGID_28_)" /></g><g
     transform="translate(-2.343,-151.012)"
     id="g515" /><g
     transform="translate(-2.343,-151.012)"
     id="g517" /><g
     transform="translate(-2.343,-151.012)"
     id="g519" /><g
     transform="translate(-2.343,-151.012)"
     id="g521" /><g
     transform="translate(-2.343,-151.012)"
     id="g523" /><g
     transform="translate(-2.343,-151.012)"
     id="g525" /></svg>